<?xml version="1.0" encoding="UTF-8" standalone="no"?>
<!-- Created with Inkscape (http://www.inkscape.org/) -->

<svg
   version="1.1"
   id="svg2"
   width="744"
   height="48.959999"
   viewBox="0 0 744 48.959999"
   sodipodi:docname="EGS_Schriftzug_weiss.eps"
   xmlns:inkscape="http://www.inkscape.org/namespaces/inkscape"
   xmlns:sodipodi="http://sodipodi.sourceforge.net/DTD/sodipodi-0.dtd"
   xmlns="http://www.w3.org/2000/svg"
   xmlns:svg="http://www.w3.org/2000/svg">
  <defs
     id="defs6" />
  <sodipodi:namedview
     id="namedview4"
     pagecolor="#ffffff"
     bordercolor="#000000"
     borderopacity="0.25"
     inkscape:showpageshadow="2"
     inkscape:pageopacity="0.0"
     inkscape:pagecheckerboard="0"
     inkscape:deskcolor="#d1d1d1" />
  <g
     id="g8"
     inkscape:groupmode="layer"
     inkscape:label="ink_ext_XXXXXX"
     transform="matrix(1.3333333,0,0,-1.3333333,0,48.96)">
    <g
       id="g10"
       transform="scale(0.1)">
      <path
         d="M 0,290.398 H 187.598 V 244.801 H 50.4023 V 175.199 H 180.398 V 129.602 H 50.4023 V 52.8047 H 194.801 V 7.19531 L 0,7.19531 V 290.398"
         style="fill:#ffffff;fill-opacity:1;fill-rule:nonzero;stroke:none"
         id="path12" />
      <path
         d="m 357.992,170.398 c 28.399,0 61.598,2.407 61.598,39.204 0,33.601 -31.195,37.601 -57.199,37.601 h -43.598 v -76.805 z m -89.597,120 h 98.398 c 54.398,0 105.598,-17.593 105.598,-81.195 0,-40.801 -23.598,-70.797 -65.598,-76.801 L 481.992,7.19531 H 421.191 L 355.59,127.195 H 318.793 V 7.19531 H 268.395 V 290.398"
         style="fill:#ffffff;fill-opacity:1;fill-rule:nonzero;stroke:none"
         id="path14" />
      <path
         d="m 544.391,290.398 h 66.797 L 748.387,80 l 0.801,-0.7891 h -0.801 L 749.188,80 V 290.398 H 799.59 V 7.19531 h -64.004 l -140,217.20669 h -0.797 V 7.19531 H 544.391 V 290.398"
         style="fill:#ffffff;fill-opacity:1;fill-rule:nonzero;stroke:none"
         id="path16" />
      <path
         d="m 1025.59,229.602 c -10.8,15.199 -30.004,22.402 -49.606,22.402 -23.203,0 -46.398,-10.402 -46.398,-36.402 0,-56.797 134.394,-24.403 134.394,-125.2036 C 1063.98,29.6016 1015.99,0 960.387,0 925.184,0 890.785,10.8008 867.586,38.4063 l 38,36.7968 c 12.398,-18.8047 33.598,-29.6054 56,-29.6054 23.199,0 49.604,12.8086 49.604,38.8046 0,61.9957 -134.405,26.3987 -134.405,127.6017 0,58.394 52,85.598 104.403,85.598 29.602,0 59.202,-8.399 81.192,-29.2 l -36.79,-38.8"
         style="fill:#ffffff;fill-opacity:1;fill-rule:nonzero;stroke:none"
         id="path18" />
      <path
         d="m 1198.38,244.801 h -86.8 v 45.597 h 224 v -45.597 h -86.8 V 7.19531 h -50.4 V 244.801"
         style="fill:#ffffff;fill-opacity:1;fill-rule:nonzero;stroke:none"
         id="path20" />
      <path
         d="M 1787.97,27.9961 C 1753.57,9.60156 1714.37,0 1670.77,0 c -87.2,0 -149.6,59.2109 -149.6,147.602 0,90.8 62.4,150 149.6,150 43.2,0 82,-9.2 111.6,-35.598 l -37.2,-37.602 c -18,17.602 -45.6,27.602 -74,27.602 -58.4,0 -97.2,-44.801 -97.2,-101.203 0,-60.4026 38.8,-105.2033 97.2,-105.2033 25.6,0 48.8,4.8007 66.4,14.8007 v 66.7966 h -58 v 45.61 h 108.4 V 27.9961"
         style="fill:#ffffff;fill-opacity:1;fill-rule:nonzero;stroke:none"
         id="path22" />
      <path
         d="m 2047.57,367.203 c 17.6,0 31.2,-12.402 31.2,-28.801 0,-16.398 -13.6,-28.8 -31.2,-28.8 -17.6,0 -30.4,13.601 -30.4,28.8 0,15.203 12.8,28.801 30.4,28.801 z m -82.4,0 c 17.6,0 31.2,-12.402 31.2,-28.801 0,-16.398 -13.6,-28.8 -31.2,-28.8 -17.6,0 -30.4,13.601 -30.4,28.8 0,15.203 12.8,28.801 30.4,28.801 z m 41.2,-321.6053 c 58.8,0 97.6,44.8007 97.6,105.2033 0,56.402 -38.8,101.203 -97.6,101.203 -58.4,0 -97.2,-44.801 -97.2,-101.203 0,-60.4026 38.8,-105.2033 97.2,-105.2033 z m -0.4,252.0043 c 88.4,1.601 150.8,-57.602 150.8,-148.399 0,-88.4022 -62.4,-147.60144 -150.8,-149.203 -87.2,0 -149.6,59.2109 -149.6,147.602 0,90.8 62.4,150 149.6,150"
         style="fill:#ffffff;fill-opacity:1;fill-rule:nonzero;stroke:none"
         id="path24" />
      <path
         d="m 2228.77,290.398 h 50.4 V 177.602 h 132.4 v 112.796 h 50.4 V 7.19531 h -50.4 V 132.004 h -132.4 V 7.19531 h -50.4 V 290.398"
         style="fill:#ffffff;fill-opacity:1;fill-rule:nonzero;stroke:none"
         id="path26" />
      <path
         d="m 2549.17,290.398 h 66.8 L 2753.17,80 l 0.8,-0.7891 h -0.8 l 0.8,0.7891 v 210.398 h 50.41 V 7.19531 h -64.01 l -140,217.20669 h -0.79 V 7.19531 h -50.41 V 290.398"
         style="fill:#ffffff;fill-opacity:1;fill-rule:nonzero;stroke:none"
         id="path28" />
      <path
         d="m 2891.57,290.398 h 187.6 v -45.597 h -137.2 v -69.602 h 130 v -45.597 h -130 V 52.8047 h 144.4 V 7.19531 h -194.8 V 290.398"
         style="fill:#ffffff;fill-opacity:1;fill-rule:nonzero;stroke:none"
         id="path30" />
      <path
         d="m 3249.57,170.398 c 28.4,0 61.6,2.407 61.6,39.204 0,33.601 -31.2,37.601 -57.21,37.601 h -43.59 v -76.805 z m -89.6,120 h 98.4 c 54.4,0 105.59,-17.593 105.59,-81.195 0,-40.801 -23.59,-70.797 -65.59,-76.801 L 3373.56,7.19531 h -60.79 l -65.6,119.99969 h -36.8 V 7.19531 h -50.4 V 290.398"
         style="fill:#ffffff;fill-opacity:1;fill-rule:nonzero;stroke:none"
         id="path32" />
      <path
         d="m 3593.15,59.6016 c 14.01,-23.5938 36.81,-35.5977 64.81,-35.5977 35.59,0 63.6,21.5938 63.6,55.5977 0,79.2034 -146,32.8004 -146,140.3984 0,50.398 43.2,77.602 90.8,77.602 30.8,0 58,-10.399 77.19,-35.598 l -22.79,-16.402 c -13.2,18.402 -30.8,28.003 -55.2,28.003 -34,0 -63.61,-17.605 -63.61,-53.605 0,-85.203 146.01,-34 146.01,-140.3984 0,-51.1953 -42,-79.6016 -88,-79.6016 -37.21,0 -70,12.0039 -92,42.8047 l 25.19,16.7969"
         style="fill:#ffffff;fill-opacity:1;fill-rule:nonzero;stroke:none"
         id="path34" />
      <path
         d="m 3894.77,266.402 h -96.8 v 23.996 h 219.99 v -23.996 h -96.8 V 7.19531 h -26.39 V 266.402"
         style="fill:#ffffff;fill-opacity:1;fill-rule:nonzero;stroke:none"
         id="path36" />
      <path
         d="m 4085.56,290.398 h 26.39 V 7.19531 h -26.39 V 290.398"
         style="fill:#ffffff;fill-opacity:1;fill-rule:nonzero;stroke:none"
         id="path38" />
      <path
         d="m 4213.55,290.398 h 169.6 v -23.996 h -143.2 v -100.8 h 133.2 v -24 h -133.2 V 7.19531 h -26.4 V 290.398"
         style="fill:#ffffff;fill-opacity:1;fill-rule:nonzero;stroke:none"
         id="path40" />
      <path
         d="m 4522.75,266.402 h -96.79 v 23.996 h 219.99 v -23.996 h -96.8 V 7.19531 h -26.4 V 266.402"
         style="fill:#ffffff;fill-opacity:1;fill-rule:nonzero;stroke:none"
         id="path42" />
      <path
         d="M 4914.76,115.598 C 4914.76,55.2031 4888.76,0 4811.55,0 4734.36,0 4708.36,55.2031 4708.36,115.598 v 174.8 h 26.4 V 122.402 c 0,-40.3981 10.8,-98.3981 76.79,-98.3981 66.01,0 76.81,58 76.81,98.3981 v 167.996 h 26.4 v -174.8"
         style="fill:#ffffff;fill-opacity:1;fill-rule:nonzero;stroke:none"
         id="path44" />
      <path
         d="m 5011.15,290.398 h 34.01 L 5217.55,42.4023 h 0.8 V 290.398 h 26.41 V 7.19531 h -34.01 L 5038.35,255.199 h -0.8 V 7.19531 h -26.4 V 290.398"
         style="fill:#ffffff;fill-opacity:1;fill-rule:nonzero;stroke:none"
         id="path46" />
      <path
         d="M 5579.95,25.5977 C 5547.15,6.80859 5511.15,0 5474.35,0 c -86.4,0 -146.4,62.4023 -146.4,148.805 0,86.394 60,148.797 146.4,148.797 42,0 76,-12.801 102,-39.2 l -19.2,-20 c -17.2,20.801 -52,35.203 -82.8,35.203 -74,0 -120,-54.402 -120,-124.8 0,-70.3987 46,-124.8011 120,-124.8011 30.4,0 57.6,3.9922 79.2,16.7969 v 95.2072 h -68 V 160 h 94.4 V 25.5977"
         style="fill:#ffffff;fill-opacity:1;fill-rule:nonzero;stroke:none"
         id="path48" />
    </g>
  </g>
</svg>
