<?xml version="1.0" encoding="utf-8"?>
<!-- Generator: Adobe Illustrator 27.0.0, SVG Export Plug-In . SVG Version: 6.00 Build 0)  -->
<svg version="1.1" id="Ebene_1" xmlns="http://www.w3.org/2000/svg" xmlns:xlink="http://www.w3.org/1999/xlink" x="0px" y="0px"
	 viewBox="0 0 425.2 113.39" style="enable-background:new 0 0 425.2 113.39;" xml:space="preserve">
<style type="text/css">
	.st0{fill:#FFFFFF;}
</style>
<g>
	<g>
		<polygon class="st0" points="135.27,85.88 135.27,104.54 145.75,104.54 145.75,102.75 137.14,102.75 137.14,95.56 145.1,95.56 
			145.1,93.77 137.14,93.77 137.14,87.67 145.75,87.67 145.75,85.88 		"/>
		<g>
			<path class="st0" d="M155.38,95.81h4.09c1.5,0,3.29,0.56,3.29,3.23v0.54c0,2.74-2.14,3.15-3.42,3.15h-3.96V95.81z M162.44,90.92
				c0,2.75-1.64,3.1-3.07,3.1h-3.99v-6.35h3.83c2.17,0,3.23,0.99,3.23,3.02V90.92z M162.22,94.9c1.94-1.15,2.1-3.27,2.1-3.92v-0.31
				c0-1.12-0.36-4.79-5.06-4.79h-5.75v18.66h5.89c4.14,0,5.24-3.08,5.24-4.89v-0.64C164.64,97.87,164.31,95.88,162.22,94.9"/>
		</g>
		<polygon class="st0" points="172.8,85.88 172.8,104.54 183.29,104.54 183.29,102.75 174.67,102.75 174.67,95.56 182.63,95.56 
			182.63,93.77 174.67,93.77 174.67,87.67 183.29,87.67 183.29,85.88 		"/>
		<g>
			<path class="st0" d="M200.16,90.82v0.79c0,2.86-2.36,3.17-3.37,3.17h-3.88v-7.12h3.82C198.02,87.67,200.16,88.08,200.16,90.82
				 M198.38,96.42c2.69-0.66,3.66-2.96,3.66-4.78v-0.9c0-0.5-0.15-4.86-5.25-4.86h-5.76v18.66h1.88v-7.96h3.49l3.91,7.96h2.14
				L198.38,96.42z"/>
		</g>
		<polygon class="st0" points="208.68,85.88 208.68,87.7 213.54,87.7 213.54,104.54 215.42,104.54 215.42,87.7 220.28,87.7 
			220.28,85.88 		"/>
		<g>
			<path class="st0" d="M243.42,90.82v0.79c0,2.86-2.36,3.17-3.37,3.17h-3.88v-7.12H240C241.28,87.67,243.42,88.08,243.42,90.82
				 M241.64,96.42c2.69-0.66,3.65-2.96,3.65-4.78v-0.9c0-0.5-0.15-4.86-5.24-4.86h-5.76v18.66h1.88v-7.96h3.49l3.91,7.96h2.14
				L241.64,96.42z"/>
			<path class="st0" d="M262.26,85.88v13.93c0,2.95-2.76,3.18-3.61,3.18c-0.85,0-3.64-0.23-3.64-3.18V85.88h-1.88v13.93
				c0,1.72,1.16,4.97,5.54,4.97c4.31,0,5.46-3.11,5.46-4.94V85.88H262.26z"/>
		</g>
		<polygon class="st0" points="272.43,85.88 272.43,104.54 274.3,104.54 274.3,95.58 282.26,95.58 282.26,93.79 274.3,93.79 
			274.3,87.67 282.91,87.67 282.91,85.88 		"/>
		<g>
			<path class="st0" d="M303.81,95.15c-1.46-0.76-2.72-1.37-3.93-1.95l-0.53-0.26c-1.2-0.58-1.83-1.46-1.83-2.53
				c0-1.79,1.36-2.94,3.48-2.94c2.26,0,3.66,1.19,3.66,3.1v0.2h1.88v-0.2c0-2.83-2.33-4.89-5.54-4.89c-3.1,0-5.35,1.96-5.35,4.66
				c0,1.7,0.98,3.21,2.62,4.05c0.63,0.32,1.23,0.62,1.84,0.92c0.91,0.45,1.85,0.92,2.86,1.46c1.38,0.74,2,1.67,2,3.02
				c0,1.93-1.61,3.23-4.01,3.23c-2.28,0-3.75-1.25-3.75-3.18v-0.2h-1.88v0.2c0,2.88,2.38,4.97,5.65,4.97c3.34,0,5.87-2.13,5.87-4.97
				C306.84,97.83,305.76,96.16,303.81,95.15"/>
		</g>
		<polygon class="st0" points="310.99,85.88 310.99,87.7 315.85,87.7 315.85,104.54 317.73,104.54 317.73,87.7 322.59,87.7 
			322.59,85.88 		"/>
		<rect x="329.01" y="85.88" class="st0" width="1.88" height="18.66"/>
		<polygon class="st0" points="339.46,85.88 339.46,104.54 341.33,104.54 341.33,95.58 349.29,95.58 349.29,93.79 341.33,93.79 
			341.33,87.67 349.94,87.67 349.94,85.88 		"/>
		<polygon class="st0" points="354.75,85.88 354.75,87.7 359.61,87.7 359.61,104.54 361.48,104.54 361.48,87.7 366.35,87.7 
			366.35,85.88 		"/>
		<g>
			<path class="st0" d="M381.48,85.88v13.93c0,2.95-2.76,3.18-3.61,3.18c-0.85,0-3.64-0.23-3.64-3.18V85.88h-1.88v13.93
				c0,1.72,1.16,4.97,5.54,4.97c4.31,0,5.46-3.11,5.46-4.94V85.88H381.48z"/>
		</g>
		<polygon class="st0" points="400.91,85.88 400.91,101.45 393.97,85.88 391.65,85.88 391.65,104.54 393.52,104.54 393.52,89.18 
			400.38,104.54 402.78,104.54 402.78,85.88 		"/>
		<g>
			<path class="st0" d="M258.63,85.49c-0.83,0-1.51,0.71-1.51,1.58c0,0.87,0.68,1.58,1.51,1.58c0.83,0,1.51-0.71,1.51-1.58
				C260.15,86.19,259.47,85.49,258.63,85.49"/>
			<path class="st0" d="M126.97,90.82v-0.2c0-1.7-1.15-4.91-5.49-4.91c-4.52,0-5.51,3.53-5.51,4.89v9.22c0,1.38,0.98,4.96,5.46,4.96
				c4.55,0,5.54-3.57,5.54-4.94v-5.48h-5.38l-0.17,1.79h3.68v3.66c0,2.92-2.76,3.15-3.61,3.15c-0.85,0-3.64-0.23-3.64-3.15v-9.17
				c0-2.82,2.54-3.13,3.64-3.13c1.09,0,3.61,0.3,3.61,3.1v0.2H126.97z"/>
			<path class="st0" d="M422.07,90.82v-0.2c0-1.7-1.15-4.91-5.49-4.91c-4.52,0-5.51,3.53-5.51,4.89v9.22c0,1.38,0.98,4.96,5.46,4.96
				c4.55,0,5.54-3.57,5.54-4.94v-5.48h-5.38l-0.17,1.79h3.67v3.66c0,2.92-2.76,3.15-3.61,3.15c-0.85,0-3.64-0.23-3.64-3.15v-9.17
				c0-2.82,2.54-3.13,3.64-3.13c1.08,0,3.61,0.3,3.61,3.1v0.2H422.07z"/>
			<path class="st0" d="M122.25,53.1v5.74h4.62c1.88,0,2.88-1.07,2.88-2.83c0-0.05,0-0.19-0.01-0.23c-0.05-1.73-1.18-2.67-2.95-2.67
				H122.25z M115.92,47.16h11.23c6.26,0,8.93,3.94,8.93,8.45c0,0.12,0,0.37-0.01,0.48c-0.15,2.69-1.87,4.71-3.07,5.55
				c1.5,0.9,3.22,2.73,3.46,5.72c0.02,0.22,0.03,0.71,0.03,0.95c0,4.92-3.22,8.61-8.84,8.61h-11.74V47.16z M122.25,64.76V71h4.88
				c1.69,0,2.94-0.95,3.04-2.7c0.01-0.1,0.02-0.42,0.02-0.53c0-1.85-1.11-3.01-3-3.01H122.25z"/>
		</g>
		<polygon class="st0" points="142.9,76.93 142.9,47.17 161.8,47.17 161.8,53.07 149.23,53.07 149.23,58.8 160.21,58.8 160.21,64.7 
			149.23,64.7 149.23,71.04 161.8,71.04 161.8,76.93 		"/>
		<polygon class="st0" points="193.83,76.93 188.33,76.93 183.61,60.8 178.86,76.93 173.4,76.93 165.88,47.17 172.48,47.17 
			176.42,64.48 181.24,47.18 185.97,47.18 190.77,64.46 194.72,47.17 201.32,47.17 		"/>
		<polygon class="st0" points="206.28,76.93 206.28,47.17 225.18,47.17 225.18,53.07 212.61,53.07 212.61,58.8 223.59,58.8 
			223.59,64.7 212.61,64.7 212.61,71.04 225.18,71.04 225.18,76.93 		"/>
		<polygon class="st0" points="259.53,76.93 259.53,47.17 278.43,47.17 278.43,53.07 265.86,53.07 265.86,58.8 276.84,58.8 
			276.84,64.7 265.86,64.7 265.86,71.04 278.43,71.04 278.43,76.93 		"/>
		<polygon class="st0" points="300.53,76.93 291.35,60.54 291.35,76.93 285.03,76.93 285.03,47.17 290.8,47.17 300.01,63.64 
			300.01,47.17 306.32,47.17 306.32,76.93 		"/>
		<g>
			<path class="st0" d="M245.53,59.98l-0.49,5.09h2.61V68c0,2.86-1.47,4.08-4.93,4.08c-1.41,0-3.21-0.76-3.84-1.63
				c-0.72-0.99-1.45-2.16-1.45-8.28s0.73-7.29,1.45-8.28c0.62-0.85,2.42-1.6,3.84-1.6c2.58,0,4.02,1.76,4.16,3.55l6.48-0.82
				c-0.6-5.82-5.87-8.43-10.86-8.43c-3.48,0-6.66,1.25-8.73,3.42c-2.93,3.09-2.93,7.23-2.93,11.61v0.52v0.52
				c-0.01,4.38-0.01,8.52,2.93,11.61c2.07,2.18,5.26,3.42,8.73,3.42c5.39,0,11.17-2.13,11.2-9.51l0-8.2H245.53z"/>
		</g>
		<polygon class="st0" points="143.54,8.56 139.59,25.85 134.79,8.57 130.06,8.57 125.24,25.87 121.3,8.56 114.7,8.56 122.22,38.33 
			127.69,38.33 132.43,22.19 137.15,38.33 142.65,38.33 150.15,8.56 		"/>
		<rect x="155.3" y="8.55" class="st0" width="6.34" height="29.77"/>
		<polygon class="st0" points="217.37,8.56 217.37,38.33 236.28,38.33 236.28,32.43 223.7,32.43 223.7,26.09 234.68,26.09 
			234.68,20.2 223.7,20.2 223.7,14.46 236.28,14.46 236.28,8.56 		"/>
		<polygon class="st0" points="258.14,8.56 258.14,25.03 248.94,8.56 243.16,8.56 243.16,38.33 249.48,38.33 249.48,21.93 
			258.66,38.33 264.45,38.33 264.45,8.56 		"/>
		<polygon class="st0" points="334.59,8.56 334.59,20.19 326.45,20.19 326.45,8.56 320.13,8.56 320.13,38.33 326.45,38.33 
			326.45,26.09 334.59,26.09 334.59,38.33 340.93,38.33 340.93,8.56 		"/>
		<path class="st0" d="M357.68,18.12l2.71,9.28h-5.56L357.68,18.12z M354.72,8.56l-9.83,29.77h6.6l1.61-5.35h8.95l1.54,5.35h6.59
			l-9.86-29.77H354.72z"/>
		<polygon class="st0" points="374.29,8.56 374.29,38.33 380.62,38.33 380.62,26.29 391.6,26.29 391.6,20.39 380.62,20.39 
			380.62,14.46 393.19,14.46 393.19,8.56 		"/>
		<polygon class="st0" points="397.28,8.56 397.28,14.47 404.38,14.47 404.38,38.33 410.71,38.33 410.71,14.47 417.83,14.47 
			417.83,8.56 		"/>
		<g>
			<path class="st0" d="M305.86,33.33c-1.42,0-2.45-0.74-3.07-1.59c-0.67-0.93-1.35-2.04-1.43-7.25c-0.01-0.3-0.01-0.59-0.01-0.92
				c0-6.08,0.73-7.25,1.44-8.23c0.62-0.85,1.65-1.59,3.07-1.59c2.57,0,3.56,1.75,3.7,3.53l6.45-0.82c-0.6-5.79-5.4-8.39-10.37-8.39
				c-3.46,0-5.88,1.24-7.94,3.41c-2.92,3.07-2.92,7.19-2.91,11.55v1.24c0,4.28,0.04,8.32,2.91,11.34c2.06,2.16,4.47,3.41,7.94,3.41
				c5.25,0,10.03-2.69,10.63-8.65l-6.56-0.63C309.58,31.68,308.43,33.33,305.86,33.33"/>
			<path class="st0" d="M287.49,22.7c-1.32-1.16-3.17-2-5.59-2.52c-0.11-0.05-1.27-0.25-1.38-0.31c-0.18-0.09-1.84-0.42-1.95-0.54
				c-0.87-0.24-1.36-0.71-1.66-1.17c-0.31-0.49-0.4-0.99-0.36-1.37c0.14-1.34,1.26-2.65,3.55-2.69c0.15,0,0.32-0.01,0.49-0.01
				c1.49,0,3.41,0.27,4.79,1.87l3.9-3.85c-1.9-2.5-4.92-3.8-8.89-3.8c-6.17,0-10.03,3.78-10.03,8.99c0,2.66,0.92,4.82,2.54,6.17
				c1.64,1.37,3.55,2.24,5.76,2.69c0.13,0.07,1.38,0.29,1.47,0.34c0.14,0.08,1.72,0.38,1.82,0.49c0.81,0.22,1.35,0.58,1.67,1.03
				c0.22,0.31,0.35,0.68,0.41,1.09c0.03,0.22,0.05,0.45,0.04,0.69c-0.06,1.72-1.41,2.76-4.02,2.88c-0.5,0.02-1.03,0.02-1.56-0.03
				c-1.9-0.15-3.69-0.8-4.75-2.06c-0.01-0.02-0.04-0.02-0.09,0l-3.88,3.83c2.2,2.9,5.56,4.2,9.86,4.2c5.86,0,10.66-3.35,10.66-9.09
				C290.32,26.61,289.44,24.27,287.49,22.7"/>
			<path class="st0" d="M209.23,22.7c-1.32-1.16-3.17-2-5.59-2.52c-0.11-0.05-1.27-0.25-1.38-0.31c-0.18-0.09-1.84-0.42-1.95-0.54
				c-0.87-0.24-1.36-0.71-1.66-1.17c-0.31-0.49-0.4-0.99-0.36-1.37c0.14-1.34,1.26-2.65,3.55-2.69c0.15,0,0.32-0.01,0.49-0.01
				c1.49,0,3.41,0.27,4.79,1.87l3.9-3.85c-1.9-2.5-4.92-3.8-8.89-3.8c-6.17,0-10.03,3.78-10.03,8.99c0,2.66,0.92,4.82,2.54,6.17
				c1.64,1.37,3.55,2.24,5.76,2.69c0.13,0.07,1.38,0.29,1.47,0.34c0.14,0.08,1.72,0.38,1.82,0.49c0.81,0.22,1.35,0.58,1.67,1.03
				c0.22,0.31,0.35,0.68,0.41,1.09c0.03,0.22,0.05,0.45,0.04,0.69c-0.07,1.72-1.41,2.76-4.02,2.88c-0.5,0.02-1.03,0.02-1.56-0.03
				c-1.9-0.15-3.69-0.8-4.75-2.06c-0.01-0.02-0.04-0.02-0.09,0l-3.87,3.83c2.2,2.9,5.55,4.2,9.86,4.2c5.86,0,10.66-3.35,10.66-9.09
				C212.05,26.61,211.17,24.27,209.23,22.7"/>
			<path class="st0" d="M184.72,22.7c-1.32-1.16-3.17-2-5.59-2.52c-0.11-0.05-1.27-0.25-1.38-0.31c-0.18-0.09-1.84-0.42-1.95-0.54
				c-0.87-0.24-1.36-0.71-1.66-1.17c-0.31-0.49-0.4-0.99-0.36-1.37c0.14-1.34,1.26-2.65,3.55-2.69c0.15,0,0.32-0.01,0.49-0.01
				c1.49,0,3.41,0.27,4.79,1.87l3.9-3.85c-1.9-2.5-4.92-3.8-8.89-3.8c-6.17,0-10.03,3.78-10.03,8.99c0,2.66,0.92,4.82,2.54,6.17
				c1.64,1.37,3.55,2.24,5.76,2.69c0.13,0.07,1.38,0.29,1.47,0.34c0.14,0.08,1.72,0.38,1.82,0.49c0.81,0.22,1.35,0.58,1.67,1.03
				c0.22,0.31,0.35,0.68,0.41,1.09c0.03,0.22,0.05,0.45,0.04,0.69c-0.07,1.72-1.41,2.76-4.02,2.88c-0.5,0.02-1.03,0.02-1.56-0.03
				c-1.9-0.15-3.69-0.8-4.75-2.06c-0.01-0.02-0.04-0.02-0.09,0l-3.88,3.83c2.2,2.9,5.56,4.2,9.86,4.2c5.86,0,10.66-3.35,10.66-9.09
				C187.55,26.61,186.67,24.27,184.72,22.7"/>
			<path class="st0" d="M416.43,35.5c0-1.79,1.4-3.25,3.11-3.25c1.72,0,3.11,1.46,3.11,3.25c0,1.79-1.4,3.25-3.11,3.25
				C417.83,38.75,416.43,37.29,416.43,35.5"/>
		</g>
	</g>
	<path class="st0" d="M14.46,66.16c-0.78-0.85-1.57-1.63-2.28-2.49C3.93,53.7,1.67,42.44,6.1,30.34
		C10.52,18.26,19.52,11.17,32.2,8.9c1.82-0.33,3.7-0.42,5.56-0.42c22.3-0.03,44.6-0.02,66.89-0.02c0.4,0,0.81,0,1.29,0
		c0,2.46,0,4.81,0,7.3c-15.78,0-31.57,0-47.45,0c0.07,0.23,0.07,0.35,0.13,0.41c2.02,2.22,4.03,4.46,6.1,6.64
		c0.3,0.31,0.89,0.48,1.34,0.48c11.91,0.03,23.82,0.02,35.74,0.02c1.37,0,2.73,0,4.16,0c0,2.49,0,4.85,0,7.33
		c-12.37,0-24.71,0-37.09,0c0.57,2.52,1.12,4.93,1.69,7.45c11.72,0,23.5,0,35.37,0c0,2.47,0,4.83,0,7.33c-3.17,0-6.38,0-9.59,0
		c-0.06,0.1-0.12,0.21-0.18,0.31c0.25,0.18,0.53,0.34,0.75,0.55c10.18,9.43,13.9,21,10.1,34.32c-3.76,13.19-12.93,21.05-26.42,23.67
		c-2.46,0.48-5.03,0.46-7.55,0.46c-13.51,0-27.02-0.06-40.53-0.11c-3.54-0.01-7.07,0-10.6-0.13c-7.27-0.27-12.67-3.73-15.87-10.18
		c-3.22-6.49-2.67-12.93,1.52-18.9C9.76,72.27,12.14,69.26,14.46,66.16z M69.03,52.92c1.68,0,3.31-0.04,4.94,0.01
		c1.45,0.05,2.91,0.1,4.33,0.32c9.36,1.5,15.84,9.97,15.2,19.82c-0.58,9.03-8.5,16.74-17.66,16.8c-16.97,0.13-33.94,0.05-50.92,0.05
		c-1.92,0-3.39-0.87-4.24-2.58c-0.87-1.75-0.65-3.48,0.54-5.04c2.45-3.23,4.98-6.41,7.38-9.68c6.05-8.25,12.12-16.49,18.03-24.84
		c2.91-4.11,2.34-9.61-1.03-13.42c-3.27-3.7-8.69-4.77-13.15-2.59c-4.5,2.2-7.08,7.21-6.08,12.05c0.29,1.4,0.95,2.73,1.52,4.33
		c0.55-0.71,0.85-1.09,1.14-1.47c1.79-2.38,3.56-4.78,5.37-7.14c0.98-1.27,2.52-1.73,3.99-1.28c1.43,0.44,2.6,1.68,2.54,3.18
		c-0.04,1-0.43,2.14-1.02,2.95c-8.65,11.65-17.36,23.26-26.07,34.86c-2.68,3.57-3.21,7.43-1.34,11.45c1.9,4.1,5.23,6.34,9.79,6.43
		c5.84,0.11,11.69,0.08,17.53,0.11c12.02,0.05,24.04,0.31,36.06,0.09c17.63-0.33,29.7-18.13,23.65-34.68
		c-4.37-11.94-15.63-18.55-28.84-17.09C70.13,48,69.6,50.39,69.03,52.92z M45.24,75.11c0.39-0.53,0.65-0.89,0.91-1.24
		c3.86-5.15,7.79-10.25,11.55-15.48c3.04-4.22,5.1-8.85,5.54-14.16c1.33-16.14-11.89-29.62-28.01-28.26
		c-10.13,0.86-17.5,6.13-21.61,15.37c-4.06,9.13-2.85,17.94,2.96,26.08c0.68,0.95,1.51,1.8,2.35,2.77c1.58-2.1,3.04-4.05,4.53-6.04
		c-0.35-0.46-0.67-0.87-0.98-1.28c-5.4-7.22-4.78-17.18,1.5-23.87c5.98-6.37,16.02-7.54,23.41-2.72c8.66,5.64,11.2,17.18,5.22,25.79
		c-6.92,9.96-14.28,19.61-21.44,29.4c-0.23,0.31-0.45,0.62-0.76,1.05c0.37,0.04,0.55,0.07,0.72,0.07c14.7,0,29.41,0.05,44.11-0.03
		c6.13-0.03,10.86-4.88,11-10.95c0.14-5.85-4.49-10.9-10.47-11.24c-3.27-0.18-6.55-0.09-9.82-0.08c-0.33,0-0.77,0.27-0.97,0.54
		c-1.51,2.03-2.98,4.09-4.45,6.14c-0.16,0.22-0.28,0.47-0.48,0.81c0.53,0,0.9,0,1.27,0c4.62,0,9.23-0.01,13.85,0.01
		c1.81,0.01,3.28,1.33,3.56,3.1c0.26,1.71-0.73,3.44-2.36,3.98c-0.55,0.18-1.17,0.25-1.75,0.26c-9.49,0.01-18.99,0.01-28.48,0.01
		C45.91,75.14,45.7,75.13,45.24,75.11z"/>
</g>
</svg>
