<svg version="1.1" viewBox="0 0 1966.7 689.33" xmlns="http://www.w3.org/2000/svg"
  width="182.4"
  height="53">
  <path d="m698.02 663.85c-1.2257-0.83413-2.8562-2.3636-3.6232-3.3987l-1.3946-1.8821-0.34812-173.35 16.33-61.11c8.9817-33.61 24.96-93.348 35.507-132.75l19.177-71.64 5.6667-4.9177c8.0166-6.9571 20.067-14.8 31.333-20.393 23.11-11.472 45.067-16.548 71.667-16.567 19.244-0.0137 33.905 2.2638 51 7.9227 50.089 16.58 89.985 60.174 105.07 114.81 10.954 39.673 8.4452 83.121-7.0286 121.71-20.136 50.209-63.389 88.007-113.37 99.076-20.39 4.5151-46.662 4.3789-65.39-0.33893-20.722-5.2202-42.251-16.003-58.277-29.188l-5.3333-4.3879-0.33333 85.113c-0.37086 94.694 0.0139 87.444-4.8233 90.894l-2.1767 1.5526-71.42 0.36655zm186.32-219.51c21.671-4.6517 40.017-17.288 52.652-36.267 27.567-41.409 20.439-101.47-15.622-131.63-6.6805-5.5881-10.133-7.8749-17.158-11.365-25.932-12.884-55.354-10.809-79.994 5.6407-7.002 4.6745-18.918 16.799-23.825 24.241-11.3 17.14-16.458 34.823-16.446 56.381 0.0144 24.516 8.0766 46.863 23.607 65.436 9.8493 11.779 26.484 22.56 40.54 26.276 11.57 3.0583 25.679 3.5621 36.246 1.294zm157.15 219.89c-3.0194-1.4882-4.9686-4.4831-5.3238-8.1802-0.2835-2.9504 5.2939-15.912 103.45-240.41 97.928-223.98 103.91-237.45 106.63-240.06 4.4029-4.2304 5.2846-4.3128 43.822-4.0946 32.23 0.18251 33.707 0.24522 35.877 1.5237 4.1857 2.4655 6.3641 7.0891 5.3396 11.333-0.8438 3.4954-208.95 476.21-210.3 477.7-3.0258 3.3434-2.4354 3.2963-41.099 3.2801-31.98-0.0134-36.455-0.14087-38.388-1.0935zm-550.48-138.67c-36.326-2.9893-66.268-14.618-94.667-36.767-6.62-5.163-25.528-24.337-26.05-26.417-0.2461-0.98053 6.9286-55.777 16.657-127.21 16.585-121.79 17.137-125.53 18.706-126.93 0.88958-0.79097 4.4081-3.1646 7.8188-5.2747 39.431-24.394 84.921-31.401 131.12-20.196 30.629 7.4281 60.276 24.987 80.184 47.491 24.52 27.718 38.751 61.112 43.645 102.42 1.2452 10.509 1.6385 38.244 0.67366 47.5l-0.53857 5.1667h-125.28c-75.843 0-125.28 0.24211-125.28 0.61355 0 0.33745 0.93375 3.2624 2.075 6.5 10.233 29.03 30.967 48.54 59.415 55.909 9.3886 2.4318 26.305 3.05 36.555 1.336 20.721-3.4648 38.255-13.59 49.135-28.374 2.1007-2.8544 4.3305-6.1186 4.9551-7.2538l1.1357-2.064h45.364c26.016 0 45.364 0.25273 45.364 0.59256 0 1.8812-6.0469 17.683-9.6053 25.101-7.5988 15.84-15.64 27.408-27.715 39.869-27.702 28.587-63.864 44.483-108.68 47.774-8.473 0.62213-18.992 0.7149-25 0.22048zm91.891-213.71c-3.7628-12.671-10.641-24.124-20.558-34.232-15.761-16.065-33.771-23.835-57.333-24.736-15.176-0.57986-26.051 1.3525-38.557 6.8512-16.341 7.1847-31.848 22.168-40.531 39.162-2.1261 4.1614-6.5791 14.898-6.5791 15.863 0 0.32959 35.763 0.58288 82.297 0.58288h82.297zm-553.58 189.32c-2.173-1.0958-3.3788-2.3016-4.4746-4.4746l-1.5-2.9746v-465.96l1.3806-2.852c0.81045-1.6742 2.3936-3.4819 3.8333-4.3771l2.4527-1.5251h70.667l2.4527 1.5251c1.4398 0.89528 3.0229 2.703 3.8333 4.3771 1.374 2.8384 1.3806 3.2539 1.3806 86.975 0 46.268 0.12361 84.123 0.27469 84.123 0.15109 0 3.2261-1.9633 6.8333-4.3628 25.766-17.14 56.85-23.805 91.225-19.561 40.131 4.9549 73.833 26.267 93.959 59.417 12.918 21.277 20.165 46.532 21.713 75.66 0.89481 16.842 0.85802 182.53-0.0415 186.72-0.83791 3.907-3.6838 7.1275-7.2055 8.1542-1.611 0.46963-13.878 0.63893-36.543 0.50433-33.257-0.19751-34.165-0.23733-35.959-1.5772-1.0122-0.75599-2.459-2.2028-3.215-3.2152-1.3689-1.8332-1.3761-2.228-1.7544-96.625-0.41247-102.92-0.21013-97.453-4.0415-109.1-5.2073-15.829-15.617-27.192-30.237-33.003-13.443-5.3439-34.447-6.3296-50.017-2.3474-23.69 6.0588-40.831 25.512-44.27 50.24-0.48864 3.5132-0.7215 34.496-0.7215 95.998v90.81l-1.5 2.9718c-0.98835 1.9582-2.4096 3.4807-4.1667 4.4636-2.6642 1.4904-2.699 1.4918-37.025 1.5027-34.316 0.011-34.362 9e-3 -37.333-1.489zm1600.5-71.855c-3.6996-0.92683-7.2113-2.905-9.6225-5.4203-2.3061-2.4058-4.4855-6.8911-3.849-7.9211 0.2167-0.35052 2.7657-0.63732 5.6645-0.63732 4.634 0 5.359 0.16534 6.0032 1.369 1.2917 2.4136 4.6692 3.9591 8.6579 3.9618 7.0112 5e-3 10.442-3.529 11.156-11.493l0.3744-4.1717-1.7551 2.078c-2.69 3.1848-7.8254 5.1188-12.739 4.7974-7.4524-0.48739-12.811-4.378-16.313-11.845-1.4865-3.1693-1.7341-4.6012-1.7341-10.03 0-5.5872 0.22-6.7812 1.8669-10.135 3.395-6.9134 10.7-11.865 17.504-11.865 3.4206 0 7.7709 1.8698 10.463 4.4972l2.5 2.44v-5.6039h10.788l-0.2841 22.167c-0.3233 25.225-0.6404 27.174-5.2309 32.154-3.7404 4.0578-8.265 5.8642-15.273 6.0977-3.1167 0.10384-6.7964-0.0942-8.1771-0.44008zm12.452-28.156c6.3507-3.6263 7.5554-14.173 2.3024-20.156-7.309-8.3244-19.603-1.136-18.377 10.745 0.9213 8.9261 8.8225 13.552 16.074 9.4111zm85.392 27.537c-2.2-0.72465-5.1337-2.2561-6.5193-3.4032-2.6758-2.2152-5.1473-6.3429-5.1473-8.5968 0-1.2538 0.4102-1.3599 5.2566-1.3599 4.9168 0 5.3297 0.11137 6.3852 1.7224 2.2852 3.4877 9.7599 4.7638 14.311 2.4433 3.5299-1.7999 4.8051-4.0534 5.2202-9.2252l0.3655-4.5532-2.7641 2.366c-6.8768 5.8862-17.074 5.0077-23.665-2.0389-3.4905-3.7316-4.9485-6.7877-5.848-12.258-1.6122-9.8041 3.0342-19.546 11.246-23.578 7.0788-3.4761 15.27-2.172 19.742 3.1432l1.7506 2.0804v-6.1023h10v21.653c0 20.367-0.085 21.912-1.4352 26.025-1.6968 5.1686-5.1497 9.1051-9.7855 11.156-4.5564 2.0155-13.818 2.2709-19.113 0.52688zm14.883-27.806c2.7982-2.0375 4.7837-6.5715 4.7837-10.924 0-5.227-2.1103-9.1379-6.0292-11.173-7.6469-3.9718-15.351 1.5776-15.389 11.085-0.024 6.0163 2.0552 9.8674 6.4185 11.887 2.647 1.2253 7.9563 0.77054 10.216-0.87509zm-321.88-1.5541v-30h10v5.4466l3.0531-2.6874c7.5743-6.6672 18.376-4.7676 25.422 4.4709 3.1373 4.1132 4.4197 9.1213 4.0227 15.709-0.517 8.5777-4.3565 15.052-10.912 18.4-2.6279 1.342-4.213 1.6573-8.2526 1.6414-5.5238-0.0217-7.8279-0.91077-11.263-4.3455l-2.0708-2.0708v23.436h-10zm27.191 2.1014c5.8276-4.1496 6.498-15.037 1.2677-20.589-5.0207-5.3298-13.109-4.156-16.379 2.3769-3.6204 7.2335-1.2863 16.409 4.887 19.21 2.7749 1.2591 7.7342 0.77506 10.224-0.99779zm371.95 27.481c-0.259-0.25898-0.4709-5.5613-0.4709-11.783v-11.312l-1.4474 1.8401c-2.0181 2.5656-7.5313 4.9919-11.361 4.9999-12.685 0.0263-22.385-13.831-19.188-27.411 2.4971-10.606 9.4451-16.777 18.996-16.87 3.9348-0.0385 5.1537 0.24061 7.772 1.7798 1.708 1.004 3.7235 2.654 4.4789 3.6667l1.3735 1.8412 0.042-6.3333h10.014l-0.1735 29.833-0.1736 29.833-4.6957 0.19309c-2.5827 0.10621-4.9077-0.0188-5.1667-0.27777zm-6.6788-26.686c7.2473-3.4391 8.353-16.452 1.8808-22.134-6.2039-5.4471-15.114-1.962-16.957 6.6328-2.3927 11.157 6.0149 19.801 15.076 15.501zm-329.97 8.8241c-8.0431-3.3075-12.358-8.5083-13.877-16.724-0.7913-4.2803 0.1256-10.543 2.1143-14.441 6.7402-13.212 24.57-15.759 34.456-4.9226 3.7615 4.1232 5.6818 9.0059 5.7622 14.651l0.058 4.0498-31.805 0.35779 0.4468 1.7804c1.1345 4.5201 5.5717 7.5284 11.104 7.5284 2.9755 0 7.1767-1.6898 7.7198-3.105 0.2499-0.65129 1.8793-0.89499 5.9837-0.89499 5.5393 0 5.6321 0.0268 5.186 1.5-2.9024 9.5836-16.369 14.653-27.149 10.22zm17.137-26.553c-2.3592-7.5983-11.907-9.6435-17.413-3.73-0.8006 0.85984-1.7681 2.3883-2.1502 3.3967l-0.6945 1.8333h20.724zm30.709 27.322c-5.757-2.3743-9.3002-5.7776-11.961-11.488-1.774-3.808-2.1639-12.417-0.7783-17.183 3.9269-13.508 19.209-19.399 28.686-11.057l3.0531 2.6874v-24.78h10v62h-10v-6.141l-1.8417 1.9715c-1.0129 1.0843-2.8855 2.5113-4.1613 3.1711-2.8669 1.4825-10.26 1.949-12.997 0.82019zm11.886-9.3978c9.8635-4.1212 8.5773-22.191-1.7642-24.786-4.9447-1.241-10.944 2.633-12.46 8.0454-3.1014 11.077 4.989 20.6 14.224 16.741zm34.34 9.4941c-3.346-0.94492-7.6311-4.7736-8.5881-7.6732-1.0451-3.1669-0.4787-8.5658 1.1326-10.795 1.9892-2.7514 7.8131-5.2737 14.897-6.4516 8.328-1.3849 10.504-2.1306 11.746-4.0256 1.4199-2.1671 0.6053-4.2279-2.1217-5.3673-4.5337-1.8943-10.48-0.63823-12.649 2.6718-1.0577 1.6142-1.463 1.7224-6.4574 1.7224h-5.329l0.4462-1.8333c0.7542-3.099 3.6153-6.81 6.8146-8.839 8.4345-5.3489 23.573-3.7809 28.082 2.9088 2.0899 3.1002 2.7191 8.285 2.9444 24.264l0.1904 13.5-4.762-1e-4c-5.0487-1.1e-4 -5.5713-0.33879-5.5713-3.6102 0-2.2907-0.7093-2.5156-2.1516-0.68205-3.0964 3.9366-12.258 6.0077-18.623 4.2102zm15.604-9.7106c2.6319-1.5193 4.5014-4.9961 4.5028-8.3742 0-2.7926-0.2239-2.8951-3.4224-1.5587-1.2391 0.51772-4.1879 1.2922-6.5531 1.7211-5.5125 0.99961-7.8937 2.2552-8.4453 4.4529-0.9142 3.6424 2.2452 5.7631 7.918 5.3146 2.1063-0.16653 4.8063-0.86658 6-1.5557zm88.837 9.5266c-4.1093-1.2996-6.4514-2.7266-9.0477-5.5125-3.3863-3.6336-4.5006-5.6522-5.696-10.318-1.3643-5.3253-0.7945-10.314 1.791-15.68 6.2878-13.05 23.97-16.056 34.211-5.8152 5.2811 5.2811 7.6756 14.436 5.7812 22.104-2.8324 11.465-15.813 18.772-27.039 15.221zm12.191-10.299c5.8276-4.1496 6.498-15.037 1.2677-20.589-5.0207-5.3298-13.109-4.156-16.379 2.3769-3.6204 7.2335-1.2862 16.409 4.887 19.21 2.7749 1.2591 7.7342 0.77506 10.224-0.99779zm155.48 10.169c-3.031-1.3129-5.7649-3.9418-7.5608-7.2705-1.3405-2.4846-1.4537-3.7707-1.6577-18.833l-0.219-16.167h9.9896l0.224 14.198c0.2513 15.935 0.5434 17.029 5.0502 18.912 3.2909 1.375 6.5594 0.638 9.293-2.0956l2.214-2.2141v-28.8h10.667v42.667h-10l-0.02-6.3333-1.7729 2.2502c-3.3987 4.3135-10.852 6.0086-16.212 3.687zm50.867-0.13857c-6.8216-2.4357-12.018-7.7036-14.186-14.382-1.3711-4.2227-0.5968-12.722 1.5391-16.894 4.893-9.5576 15.383-14.007 25.846-10.964 8.0477 2.3408 13.844 10.258 14.453 19.739l0.3232 5.0358h-32.265l0.4332 1.5c1.1279 3.9055 4.8184 7.0917 8.8388 7.6309 3.8324 0.51403 7.1157-0.23998 9.3945-2.1575 1.6968-1.4278 2.6057-1.6401 7.0196-1.6401 3.0654 0 5.0704 0.27413 5.0704 0.69323 0 1.3554-2.5737 5.6678-4.4389 7.4377-4.8639 4.6154-15.1 6.4746-22.028 4.001zm16.464-26.299c0-1.5986-2.6682-5.1887-4.8248-6.5036-4.3408-2.6466-10.729-1.1179-13.66 3.2689-2.6861 4.0209-2.5876 4.0681 8.4867 4.0681 7.5569 0 9.9994-0.20359 9.9976-0.83333zm-148 5.5v-21.333h10v42.667h-10zm-0.6666-32.64v-5.3603h11.389l-0.1947 5.1667-0.1947 5.1667-11 0.38726zm-281.96 3.8064c0.021-0.45833 0.8834-3.0833 1.9154-5.8333l1.8765-5 13.649-0.38159-1.2399 1.6133c-0.6819 0.88734-2.8898 3.5942-4.9065 6.0152l-3.6667 4.4019-3.8333 9e-3c-2.6475 6e-3 -3.8213-0.24888-3.7944-0.82442zm-50.476-39.154c-11.02-2.3413-18.315-12.243-17.402-23.619 1.1787-14.684 15.355-24.045 28.84-19.042 8.0275 2.9782 13.667 11.233 13.667 20.006v3.975h-31.333v1.5c0 2.1898 2.3095 5.6157 4.5647 6.7819 4.5024 2.3283 11.218 1.8668 13.764-0.94575 1.0248-1.1325 2.052-1.3362 6.7378-1.3362h5.5287l-0.6858 1.9673c-1.1328 3.2495-5.5798 7.7258-9.2392 9.3001-3.8316 1.6483-10.338 2.2845-14.443 1.4122zm13.432-28.462c-1.8885-4.5197-4.436-6.2178-9.3281-6.2178-3.9003 0-6.5173 1.3604-8.6475 4.4953-2.8329 4.1689-2.8278 4.1714 8.6565 4.1714h10.342zm33.625 28.204c-11.268-3.0382-17.994-13.781-15.902-25.397 2.0478-11.365 11.256-18.886 22.282-18.199 7.9098 0.49315 14.196 4.4625 17.062 10.773 1.9604 4.3169 1.885 4.4007-3.9554 4.4007-4.9291 0-5.2696-0.0949-5.9864-1.6682-1.9077-4.1868-9.1858-5.7081-13.522-2.8264-3.2773 2.1779-5.2686 6.5277-5.2507 11.469 0.026 7.1339 3.2756 11.654 9.1808 12.77 3.099 0.5856 7.8304-1.3513 9.2751-3.7969 1.1242-1.9032 1.2758-1.9474 6.6822-1.9474h5.5319l-1.0413 2.5c-2.6153 6.2788-7.0127 10.165-13.378 11.823-4.5732 1.1912-6.8515 1.2116-10.979 0.0987zm47.211 0.18779c-3.7413-0.88176-8.5608-3.5418-10.961-6.05-4.7177-4.9294-7.1148-13.859-5.5449-20.655 3.8762-16.78 23.925-22.887 36.16-11.014 8.402 8.1539 8.6807 22.668 0.6011 31.306-3.5107 3.7533-6.2989 5.3316-11.285 6.3885-4.0207 0.85221-5.4433 0.85618-8.9699 0.025zm8.3886-9.5189c4.6115-1.9268 7.4791-7.4073 6.9759-13.332-0.6037-7.1075-4.1095-11.122-10.134-11.605-2.7555-0.22092-3.8307 0.0244-5.7119 1.3031-5.1297 3.4868-7.0038 9.4707-5.0601 16.157 1.907 6.5597 8.1307 9.9004 13.93 7.4773zm61.911 9.5315c-7.1795-1.4137-13.504-6.779-16.097-13.656-1.9045-5.0505-1.6945-12.931 0.474-17.789 5.8995-13.217 24.043-16.714 34.142-6.5814 4.0981 4.1121 6.0502 8.4691 6.5083 14.526l0.369 4.8783h-32.337l0.4356 1.8333c1.022 4.3002 6.2673 8.1815 11.017 8.152 2.6537-0.0165 8.0254-2.216 8.0254-3.2861 0-0.43306 2.1573-0.69926 5.6667-0.69926 6.5235 0 6.658 0.17574 3.7023 4.8364-2.4222 3.8194-5.8181 6.1229-11.009 7.4676-4.3243 1.1202-6.5005 1.1837-10.896 0.31812zm13.87-26.688c0-0.40292-0.482-1.7482-1.071-2.9895-3.1288-6.5935-13.608-6.6634-17.599-0.11736-2.3285 3.819-2.2825 3.8394 8.6703 3.8394 6.822 0 10-0.23281 10-0.73258zm-50-4.6008v-30.667h10.667v61.333h-10.667zm-127.19-24 2.0865-6h6.5515c3.6034 0 6.5516 0.16785 6.5516 0.373s-2.1323 2.9052-4.7385 6l-4.7384 5.627h-7.7992zm91.523-33.666c-0.3667-0.12353-1.8186-0.41782-3.2265-0.65397-3.4519-0.57899-7.9892-4.8173-9.5128-8.8861-0.9585-2.5596-1.2191-5.9399-1.4362-18.627l-0.2653-15.5h10.703l0.2021 14.986 0.2022 14.986 1.8484 1.8471c1.6001 1.5988 2.3748 1.8471 5.7634 1.8471 2.972 0 4.275-0.32113 5.4102-1.3333 2.9345-2.6166 3.3113-4.776 3.3113-18.979v-13.355h10v42.667h-10l-0.021-2.8333-0.021-2.8333-1.385 1.8569c-2.1241 2.8478-8.9617 5.6899-11.573 4.8102zm-54.584-1.3132c-3.2933-1.1739-6.8419-4.6028-7.8151-7.5516-0.9951-3.0153-0.4084-7.8463 1.2199-10.045 2.8237-3.8129 6.632-5.5202 15.179-6.8046 9.657-1.4512 12.959-3.3684 12.049-6.9954-0.5527-2.2023-2.4408-3.0238-6.9997-3.0456-4.3708-0.0209-7.7233 1.3451-8.3801 3.4145-0.382 1.2034-1.0008 1.3406-6.0473 1.3406-3.0919 0-5.6217-0.15963-5.6217-0.35475 0-1.4321 2.4845-5.7423 4.5054-7.8162 3.4309-3.5209 8.3821-5.2314 15.109-5.2196 6.8717 0.0121 11.485 1.3824 14.157 4.2056 3.7585 3.9701 3.8286 4.3279 4.215 21.518 0.1977 8.8 0.5994 16.375 0.8925 16.833 0.4103 0.64145-0.6862 0.83333-4.7619 0.83333-5.7505 0-6.0837-0.25361-6.108-4.6486-0.01-1.6372-0.023-1.6336-1.9959 0.52667-2.9931 3.2771-6.8568 4.7619-12.346 4.7447-2.5667-8e-3 -5.8293-0.42901-7.2502-0.9355zm16.039-8.9828c3.3629-1.5268 4.8775-4.1382 4.8775-8.4093 0-2.6932-0.1545-3.0415-1.1666-2.6292-2.8714 1.1695-6.7948 2.3131-10.293 3.0002-5.7338 1.1263-8.6392 4.188-6.6969 7.0576 1.7155 2.5346 8.7174 3.0517 13.279 0.98077zm83.976 9.2778c-3.603-1.08-6.4357-3.5831-8.275-7.3121-1.7128-3.4726-1.8198-4.2616-2.0577-15.167l-0.2508-11.503h-5.1821v-8.6667h5.3333v-12h10.667v12h9.3333v8.6667h-9.4231l0.2116 11.059 0.2115 11.059 1.8705 1.6074c1.3697 1.1771 2.6638 1.6074 4.8333 1.6074h2.9629v4.262c0 3.2714-0.2451 4.3561-1.0546 4.6667-1.4775 0.56697-6.9069 0.4015-9.1798-0.27976zm29.289-0.96916c-2.1869-0.89903-5.2096-2.8628-6.782-4.4059-6.5466-6.425-8.3834-17.032-4.4171-25.508 4.2317-9.043 12.622-13.639 22.575-12.367 9.8772 1.2626 17.108 9.5112 18.036 20.574l0.3935 4.6936h-32.338l0.4507 1.8333c1.2209 4.9654 4.8521 7.4939 10.768 7.4975 3.2484 2e-3 4.5711-0.33511 6.5296-1.6642 2.1106-1.4323 3.2017-1.6667 7.7597-1.6667 2.917 0 5.3037 0.1649 5.3037 0.36644 0 1.1-2.4563 4.9565-4.5463 7.1378-5.0186 5.238-15.689 6.8156-23.732 3.5088zm17.973-26.139c-0.7366-2.935-2.8399-5.3206-5.6995-6.4648-3.4236-1.3698-5.0213-1.3379-8.3284 0.1665-3.0948 1.4078-3.9271 2.2892-5.3281 5.6421l-1.0232 2.4489h20.829zm-200.36-3.5407v-30.667h10v24.271l2.5-2.4289c3.0659-2.9787 5.4754-3.9361 9.9075-3.9365 4.2333-4.4e-4 7.2965 1.2732 10.059 4.1821 4.1771 4.3989 4.4843 5.9159 4.7408 23.413l0.2321 15.833h-10.702l-0.4042-29.972-1.774-1.7726c-2.5836-2.5816-7.3887-2.9417-10.559-0.79131-3.4906 2.3674-3.9198 4.4652-3.9623 19.37l-0.038 13.167h-10z" style="fill:#fff"/>
  <path d="m1596 440v25.504l-2.9395-2.7109c-3.4699-3.1986-7.2984-4.4202-12.258-3.9121-12.218 1.2518-20.548 13.884-18.168 27.551 1.5323 8.7989 5.8561 14.274 13.699 17.35 1.1 0.43129 3.8 0.80051 6 0.82031 4.67 0.0421 8.3749-1.4139 11.463-4.502 1.1553-1.1553 2.2729-2.0996 2.4843-2.0996 0.2116 0 0.3848 1.35 0.3848 3v3h10v-64h-5.332zm-107.95 19c-3.5156-3.6e-4 -7.8349 0.42207-9.6172 0.93945-4.1422 1.2025-9.4928 6.0477-10.74 9.7266l-0.9043 2.668 5.4004 0.19532c5.2964 0.19191 5.4302 0.15689 6.9531-1.7891 4.4872-5.7336 18.135-3.0661 15.369 3.0039-0.8758 1.9221-4.2807 3.2062-12.176 4.5918-3.3 0.57913-7.3536 1.4904-9.0078 2.0254-7.3393 2.3732-10.597 9.6912-7.4063 16.639 1.5946 3.4725 3.3006 4.9257 7.5781 6.457 2.6222 0.93877 4.6966 1.1784 8.2579 0.95508 5.1889-0.32534 8.1238-1.4986 11.32-4.5293l2.0761-1.9707 0.7676 3.0449 0.7656 3.043h5.3946c4.8934 0 5.347-0.1078 4.8711-1.166-0.2885-0.64166-0.6977-8.3807-0.9102-17.197-0.3735-15.496-0.4437-16.141-2.0859-19.332-1.3994-2.7193-2.3883-3.6544-5.6113-5.3027-3.5425-1.8117-4.5176-2.0014-10.295-2.002zm-64.547 1c-3.0263 0-5.502 0.26062-5.502 0.57812 0 0.31751 3.4818 9.5425 7.7363 20.5 4.2546 10.957 8.0006 20.609 8.3262 21.449 0.5556 1.4342 0.9057 1.5168 5.6895 1.334l5.0976-0.19531 8.2422-21.309c4.533-11.72 8.2422-21.546 8.2422-21.834 0-0.28814-2.3728-0.52344-5.2715-0.52344h-5.2695l-2.0489 5.6602c-1.1265 3.1133-3.5991 10.29-5.4961 15.947l-3.4492 10.285-5.3965-15.945-5.3984-15.947zm91.832 0v15.213c0 17.124 0.5655 20.441 4.1894 24.568 1.1727 1.3357 3.3349 2.9749 4.8047 3.6426h-0.01c5.7327 2.6043 13.677 0.98495 17.217-3.5078l1.7734-2.25 0.01 3.168 0.01 3.166h10.668v-44h-10.574l-0.2129 14.531c-0.1838 12.528-0.3748 14.779-1.3886 16.324-1.7639 2.6887-4.0906 3.9219-7.3985 3.9219-3.6747 0-5.4553-0.91094-7.1269-3.6523-1.1756-1.931-1.2951-3.4434-1.2951-16.625v-14.5h-5.334zm70.43 8.3164c5.1132 0.53222 9.3341 5.1411 10.035 11.934 0.6441 6.2405-1.9983 11.663-6.7324 13.812-4.8135 2.186-9.2818 1.2527-12.543-2.623-2.5223-2.9976-3.4104-6.3046-3.0156-11.223 0.444-5.5316 2.7166-9.1351 6.9414-11.004 1.8049-0.7984 3.6101-1.0739 5.3145-0.89648zm-91.824 14.611c1.5893-0.46656 1.6012-0.43493 1.1796 3.125-0.4748 4.0086-1.9106 6.3543-4.9941 8.1602-2.1112 1.2364-8.0533 2.0005-10.459 1.3457-2.3232-0.63238-3.666-2.3348-3.666-4.6465 0-2.9157 1.3476-3.7291 9.666-5.8301 3.6667-0.92607 7.3906-1.8951 8.2735-2.1543z" style="fill:#00a4e4"/>
</svg>
